<?xml version="1.0" encoding="utf-8"?>
<!-- Generator: Adobe Illustrator 15.0.0, SVG Export Plug-In . SVG Version: 6.00 Build 0)  -->
<!DOCTYPE svg PUBLIC "-//W3C//DTD SVG 1.1//EN" "http://www.w3.org/Graphics/SVG/1.1/DTD/svg11.dtd">
<svg version="1.1" id="Capa_1" xmlns="http://www.w3.org/2000/svg" xmlns:xlink="http://www.w3.org/1999/xlink" x="0px" y="0px"
	 width="160px" height="50px" viewBox="880 445 160 50" enable-background="new 880 445 160 50" xml:space="preserve">
<g>
	<path fill-rule="evenodd" clip-rule="evenodd" fill="#FFFFFF" d="M895.532,461.896c0.239,0.069,0.496,0.108,0.716-0.091
		l11.727-16.375l13.125,19.615c2.679,5.435,1.163,10.957-0.614,13.931c-3.08,5.084-9.397,8.604-17.267,6.216L880,485.331
		l0.856-1.352l21.593,0.729c0.025-0.753,0.066-1.304,0.305-2.262l-21.392,0.83l1.574-2.141l19.992,0.783
		c0.146-0.759,0.454-1.563,0.75-2.321l-20.256,0.863l1.573-2.155l19.045,0.731c0.316-0.74,0.818-1.49,1.286-2.167l-19.821,0.725
		l1.572-2.171l18.78,0.777c0.632-0.792,1.284-1.486,2.038-2.171l-20.32,0.737l0.597-0.82c-0.363-0.464-0.71-0.943-1.038-1.433
		l21.765,0.859c1.707-1.259,5.08-1.089,6.481,0.232l0.656,0.397c0.583,0.738,0.916,1.233,1.41,2.019
		c0.069,0.104,0.199,0.271,0.38-0.004c0.34-0.432,0.863-1.28,1.055-2.128l-2.845,0.114l-0.654-0.396l3.592-0.02
		c0.138-0.765,0.159-1.616,0.131-2.345l-32.303,0.625c-0.524-1.436-0.737-2.944-0.459-4.524c0.909,1.172,4.022,2.667,4.597,2.61
		l28.057,0.708c-0.07-0.748-0.19-1.522-0.536-2.249l-28.466,0.487c-0.569-0.645-0.876-1.35-1.097-2.151l16.94,0.634l-2.479-1.357
		c1.87-0.04,3.421-0.094,5.292-0.133c0.788,0.088,1.02,0.052,1.406,0.623c0.115,0.172,0.146,0.4,0.204,0.604
		c0.056,0.208,0.088,0.381,0.303,0.47c0.032,0.018,0.104,0.022,0.132,0.022c1.874,0.019,5.435,0.069,7.502,0.128
		c-0.922-1.403-1.837-1.917-3.3-2.513l-26.091,1.042c-0.17-0.941-0.193-1.78-0.041-2.805c0.018-0.091,0.084-0.096,0.135-0.041
		c0.839,0.919,2.204,1.931,3.715,2.226c0.17,0.033,0.172,0.023,0.129-0.061c-0.129-0.188-0.91-1.435-0.634-1.426l19.786,0.532
		c0.375,0.01-0.95-2.14-2.769-2.317c-0.008,0-15.938,1.001-17.2,1.052c-0.021,0.001-0.084-0.02-0.092-0.048
		c-0.401-1.482-0.488-2.305-0.252-3.899c0.005-0.015,0.016-0.022,0.025-0.012C892.851,460.759,894.292,461.563,895.532,461.896"/>
	<path fill-rule="evenodd" clip-rule="evenodd" fill="#FFFFFF" d="M930.465,462.996h14.74c0.748,0,1.281,0.64,1.335,1.282v8.864
		c0,0.75-0.642,1.389-1.335,1.389h-9.667v-3.793h6.409c0.268,0,0.534-0.211,0.534-0.479v-3.044c0-0.267-0.214-0.534-0.534-0.534
		h-7.531v12.39h-3.951V462.996z M950.333,462.996h13.832v3.685h-10.468c-0.374,0-0.695,0.375-0.641,0.695l-0.054,1.922h9.934v3.579
		h-9.934v2.03c0,0.374,0.321,0.639,0.695,0.693h12.497c0.32-0.055,0.589-0.319,0.642-0.693v-11.911h4.22
		c0.693,0,1.281,0.748,1.601,1.282c1.924,2.99,3.206,6.249,5.128,9.239c0.32,0.533,0.32,0.533,0.586,0l5.13-9.239
		c0.372-0.695,0.905-1.282,1.654-1.282h3.953v16.075h-3.953v-9.507l-4.969,8.972c-0.105,0.215-0.266,0.535-0.587,0.535h-2.938
		c-0.319,0-0.532-0.32-0.692-0.535l-4.912-8.972v8.277c0,0.694-0.589,1.229-1.229,1.229h-19.494c-0.694,0-1.282-0.535-1.282-1.229
		v-13.563C949.052,463.583,949.639,463.048,950.333,462.996 M992.149,464.49c0-0.8,0.748-1.495,1.549-1.495h13.564v3.737h-10.361
		c-0.533-0.053-0.96,0.427-0.96,0.91v1.708l9.772-0.053v3.579h-9.717v2.03c0,0.374,0.424,0.693,0.904,0.693h15.49
		c0.161,0,0.267,0,0.427-0.159c1.068-1.284,2.189-2.564,3.259-3.848c0.213-0.267,0.213-0.426,0-0.693l-3.366-3.844
		c0.107,0.159-0.373-0.375-0.588-0.375h-2.509v-3.685h4.058c1.016,0.053,1.55,1.015,2.084,1.548l2.83,3.418
		c0.267,0.32,0.267,0.32,0.535,0l2.937-3.472c0.373-0.427,1.228-1.495,2.029-1.495h3.897v3.685h-2.402
		c-0.16,0-0.32,0.053-0.428,0.214l-3.364,4.005c-0.319,0.373-0.319,0.373-0.054,0.693l3.205,3.848
		c0.213,0.159,0.373,0.159,0.641,0.159h2.351v3.471h-4.808c-0.266,0-0.747-0.105-0.907-0.266l-3.577-4.327l-3.525,4.327
		c-0.162,0.16-0.588,0.266-0.962,0.266h-20.455c-0.855,0-1.549-0.587-1.549-1.44V464.49z"/>
	<g>
		<path fill="#FFFFFF" d="M1032.355,486.946c0.183,0.22,0.394,0.606,0.496,0.901l-0.128,0.267l-2.109,0.536l-0.131-0.064
			l-0.129-0.396C1030.942,487.786,1031.691,487.321,1032.355,486.946"/>
		<path fill="#FFFFFF" d="M880.749,493.763c0.033-0.191,0.065-0.697,0.065-1.259v-1.289c0-0.402-0.021-1.048-0.11-1.169
			c-0.098-0.122-0.376-0.246-0.6-0.315l0.097-0.452h1.251c0.266,0,1.085-0.047,1.466-0.047c1.323,0,2.135,0.543,2.135,1.68
			c0,1.169-0.87,1.851-2.206,1.851c-0.324,0-0.537-0.024-0.743-0.05c0.012,0.381,0.045,0.871,0.096,0.973
			c0.123,0.124,0.464,0.228,0.743,0.306l-0.096,0.45h-2.646l-0.097-0.45L880.749,493.763z M882.104,491.975
			c0.206,0.033,0.438,0.052,0.619,0.052c0.251,0,0.497-0.025,0.677-0.102c0.148-0.143,0.297-0.454,0.297-0.971
			c0-0.437-0.142-0.741-0.291-0.9c-0.155-0.112-0.382-0.178-0.651-0.178c-0.201,0-0.414,0.028-0.588,0.078
			c-0.032,0.201-0.064,0.697-0.064,1.261V491.975z"/>
		<path fill="#FFFFFF" d="M885.73,492.015c0-1.705,1.335-2.867,2.871-2.867c1.542,0,2.608,0.971,2.608,2.558
			c0,1.689-1.259,2.864-2.808,2.864C886.82,494.569,885.73,493.602,885.73,492.015 M889.472,493.504
			c0.163-0.29,0.316-0.832,0.316-1.502c0-1.286-0.387-2.062-1.361-2.062c-0.323,0-0.62,0.084-0.828,0.232
			c-0.27,0.388-0.452,0.983-0.452,1.687c0,1.194,0.53,1.937,1.42,1.937C888.956,493.796,889.28,493.686,889.472,493.504"/>
		<path fill="#FFFFFF" d="M892.788,493.763c0.032-0.192,0.064-0.697,0.064-1.259v-1.289c0-0.402-0.02-1.048-0.11-1.169
			c-0.072-0.111-0.374-0.247-0.6-0.315l0.096-0.452h1.252c0.265,0,1.085-0.047,1.465-0.047c1.285,0,2.073,0.44,2.073,1.357
			c0,0.688-0.523,1.122-1.008,1.373c0.368,0.703,0.775,1.408,1.033,1.771l0.49,0.258l-0.097,0.45c-0.498,0-0.935,0.007-1.522,0.031
			c-0.247-0.585-0.587-1.301-0.996-2.097h-0.787v0.129c0,0.4,0.02,1.045,0.11,1.169c0.072,0.108,0.374,0.245,0.601,0.317
			l-0.098,0.45h-2.518l-0.096-0.45L892.788,493.763z M894.143,491.64l1.111,0.046c0.219-0.176,0.419-0.498,0.419-0.95
			c0-0.295-0.07-0.521-0.174-0.67c-0.142-0.124-0.408-0.188-0.698-0.188c-0.198,0-0.419,0.027-0.593,0.077
			c-0.032,0.201-0.065,0.697-0.065,1.261V491.64z"/>
		<path fill="#FFFFFF" d="M901.285,493.763c0.033-0.192,0.064-0.697,0.064-1.259v-1.288c0-0.403-0.02-1.048-0.109-1.17
			c-0.097-0.122-0.375-0.247-0.601-0.315l0.098-0.452h2.065c0.935,0,1.684-0.027,2.297-0.065c0.078,0.102,0.181,0.257,0.232,0.354
			c-0.059,0.363-0.201,1.014-0.259,1.273c-0.167,0.012-0.587-0.007-0.774-0.04l-0.192-0.858c-0.214-0.037-0.511-0.064-0.782-0.064
			c-0.231,0-0.438,0.009-0.631,0.014c-0.021,0.233-0.052,0.748-0.052,1.325v0.378l1.563-0.092l0.149,0.196
			c-0.034,0.192-0.073,0.419-0.11,0.613l-1.602-0.059v0.251c0,0.4,0.02,1.045,0.109,1.169c0.013,0.02,0.032,0.031,0.052,0.053
			c0.135,0.089,0.419,0.115,0.683,0.115c0.252,0,0.532-0.026,0.718-0.065l0.257-0.896c0.207-0.012,0.658,0.006,0.84,0.038
			c0.019,0.492,0.019,1.007,0,1.524h-4.563l-0.098-0.451L901.285,493.763z"/>
		<path fill="#FFFFFF" d="M907.039,493.763c0.033-0.192,0.065-0.697,0.065-1.259v-1.288c0-0.403-0.02-1.048-0.11-1.17
			c-0.071-0.111-0.375-0.247-0.601-0.315l0.097-0.452h2.518l0.096,0.452l-0.644,0.225c-0.032,0.193-0.065,0.696-0.065,1.261v1.288
			c0,0.4,0.019,1.045,0.109,1.169c0.012,0.02,0.033,0.039,0.052,0.06c0.136,0.076,0.407,0.089,0.658,0.089
			c0.24,0,0.498-0.02,0.672-0.046l0.258-0.961c0.207-0.014,0.659,0.006,0.839,0.04c0.02,0.509,0.02,1.051,0,1.587h-4.492
			l-0.097-0.451L907.039,493.763z"/>
		<path fill="#FFFFFF" d="M914.82,493.763c0.032-0.192,0.064-0.697,0.064-1.259v-1.289c0-0.402-0.019-1.048-0.109-1.169
			c-0.072-0.111-0.374-0.247-0.6-0.315l0.096-0.452h1.252c0.265,0,1.084-0.047,1.465-0.047c1.285,0,2.072,0.44,2.072,1.357
			c0,0.688-0.523,1.122-1.008,1.373c0.37,0.703,0.775,1.408,1.035,1.771l0.489,0.258l-0.096,0.45c-0.498,0-0.936,0.007-1.523,0.031
			c-0.246-0.585-0.587-1.301-0.995-2.097h-0.787v0.129c0,0.4,0.02,1.045,0.11,1.169c0.071,0.108,0.373,0.245,0.6,0.317l-0.095,0.45
			h-2.519l-0.096-0.45L914.82,493.763z M916.176,491.64l1.11,0.046c0.22-0.176,0.42-0.498,0.42-0.95c0-0.295-0.072-0.521-0.174-0.67
			c-0.143-0.124-0.407-0.188-0.697-0.188c-0.201,0-0.421,0.027-0.594,0.077c-0.033,0.201-0.065,0.697-0.065,1.261V491.64z"/>
		<path fill="#FFFFFF" d="M921.059,493.763c0.032-0.192,0.064-0.697,0.064-1.259v-1.288c0-0.403-0.02-1.048-0.11-1.17
			c-0.098-0.122-0.375-0.247-0.6-0.315l0.097-0.452h2.066c0.936,0,1.684-0.027,2.297-0.065c0.078,0.102,0.181,0.257,0.232,0.354
			c-0.059,0.363-0.199,1.014-0.258,1.273c-0.168,0.012-0.587-0.007-0.775-0.04l-0.194-0.858c-0.211-0.037-0.51-0.064-0.78-0.064
			c-0.233,0-0.44,0.009-0.632,0.014c-0.019,0.233-0.052,0.748-0.052,1.325v0.378l1.562-0.092l0.149,0.196
			c-0.031,0.192-0.071,0.419-0.11,0.613l-1.601-0.059v0.251c0,0.4,0.02,1.045,0.11,1.169c0.013,0.02,0.032,0.031,0.052,0.053
			c0.135,0.089,0.419,0.115,0.684,0.115c0.251,0,0.528-0.026,0.715-0.065l0.259-0.896c0.207-0.012,0.658,0.006,0.839,0.038
			c0.019,0.492,0.019,1.007,0,1.524h-4.563l-0.097-0.451L921.059,493.763z"/>
		<path fill="#FFFFFF" d="M926.304,490.769c0-0.961,1.021-1.62,2.188-1.62c0.634,0,1.212,0.166,1.646,0.418l0.13,0.227
			c-0.059,0.331-0.2,0.93-0.259,1.112c-0.174,0.006-0.62-0.016-0.807-0.04c-0.052-0.4-0.116-0.657-0.187-0.858
			c-0.174-0.13-0.381-0.193-0.679-0.193c-0.231,0-0.457,0.057-0.556,0.11c-0.077,0.114-0.127,0.297-0.127,0.502
			c0,1.244,2.678,0.839,2.678,2.66c0,0.884-0.858,1.483-2.084,1.483c-0.871,0-1.528-0.182-1.95-0.45
			c-0.006-0.407,0-0.809,0.034-1.203c0.2-0.037,0.665-0.056,0.857-0.037c0.084,0.389,0.168,0.657,0.245,0.854
			c0.17,0.113,0.447,0.173,0.801,0.173c0.239,0,0.46-0.046,0.574-0.097c0.098-0.116,0.176-0.298,0.176-0.548
			C928.984,492.284,926.304,492.569,926.304,490.769"/>
		<path fill="#FFFFFF" d="M935.022,493.589c0.064-0.149,0.175-0.496,0.291-0.912c0.187-0.005,0.677,0.014,0.871,0.042
			c0.02,0.315,0.033,0.818,0.033,1.102l-0.116,0.233c-0.44,0.286-1.155,0.516-1.963,0.516c-1.717,0-2.775-0.992-2.775-2.62
			c0-1.657,1.369-2.801,2.937-2.801c0.743,0,1.381,0.188,1.904,0.452l0.129,0.227c-0.071,0.394-0.2,0.961-0.29,1.335
			c-0.174,0.006-0.613-0.012-0.806-0.04c-0.073-0.419-0.168-0.787-0.251-0.954c-0.17-0.115-0.492-0.227-0.874-0.227
			c-0.329,0-0.621,0.077-0.781,0.176c-0.323,0.394-0.548,1.033-0.548,1.743c0,1.121,0.568,1.871,1.523,1.871
			C934.647,493.731,934.853,493.674,935.022,493.589"/>
		<path fill="#FFFFFF" d="M939.59,494.441h-2.325l-0.096-0.451l0.612-0.292c0.439-0.896,0.994-2.291,1.518-3.639l0.245-0.717
			c0.192-0.053,0.961-0.149,1.367-0.13c0.06,0.232,0.142,0.542,0.266,0.847c0.542,1.366,1.147,2.987,1.458,3.673l0.684,0.258
			l-0.097,0.451h-2.542l-0.097-0.451l0.646-0.228c-0.09-0.259-0.194-0.567-0.31-0.902l-1.833,0.044
			c-0.083,0.28-0.168,0.548-0.238,0.794l0.839,0.292L939.59,494.441z M940.693,492.214c-0.214-0.605-0.452-1.271-0.703-1.904
			c-0.228,0.574-0.459,1.234-0.672,1.872L940.693,492.214z"/>
		<path fill="#FFFFFF" d="M945.841,493.763c0.031-0.192,0.063-0.697,0.063-1.259v-2.627h-0.032c-0.225,0-0.471,0.014-0.651,0.033
			l-0.259,0.995c-0.211,0.013-0.676-0.007-0.857-0.04c-0.02-0.503-0.02-1.058,0-1.587h2.602c0.857,0,1.562-0.027,2.11-0.065
			c0.07,0.102,0.18,0.257,0.232,0.354c-0.019,0.42-0.071,0.917-0.122,1.305c-0.182,0.027-0.628,0.019-0.802-0.006l-0.238-0.955
			c-0.194-0.02-0.446-0.033-0.692-0.033v2.627c0,0.4,0.022,1.045,0.111,1.169c0.071,0.108,0.375,0.245,0.601,0.317l-0.097,0.451
			h-2.518l-0.097-0.451L945.841,493.763z"/>
		<path fill="#FFFFFF" d="M950.628,493.763c0.031-0.192,0.064-0.697,0.064-1.259v-1.288c0-0.403-0.02-1.048-0.109-1.17
			c-0.098-0.122-0.376-0.247-0.601-0.315l0.098-0.452h2.065c0.935,0,1.684-0.027,2.297-0.065c0.079,0.102,0.181,0.257,0.233,0.354
			c-0.059,0.363-0.2,1.014-0.259,1.273c-0.167,0.012-0.587-0.007-0.774-0.04l-0.194-0.858c-0.212-0.037-0.51-0.064-0.782-0.064
			c-0.231,0-0.438,0.009-0.631,0.014c-0.02,0.233-0.051,0.748-0.051,1.325v0.378l1.562-0.092l0.148,0.196
			c-0.032,0.192-0.071,0.419-0.109,0.613l-1.601-0.059v0.251c0,0.4,0.02,1.045,0.109,1.169c0.013,0.02,0.032,0.031,0.053,0.053
			c0.135,0.089,0.42,0.115,0.684,0.115c0.251,0,0.528-0.026,0.717-0.065l0.257-0.896c0.207-0.012,0.658,0.006,0.839,0.038
			c0.019,0.492,0.019,1.007,0,1.524h-4.563l-0.098-0.451L950.628,493.763z"/>
		<path fill="#FFFFFF" d="M958.641,493.763c0.033-0.192,0.064-0.698,0.064-1.259v-1.289c0-0.402-0.02-1.048-0.11-1.169
			c-0.071-0.111-0.374-0.246-0.599-0.315l0.096-0.452h1.156c0.271,0,1.096-0.047,1.477-0.047c2.139,0,2.859,1.188,2.859,2.582
			c0,1.801-1.238,2.693-2.633,2.693c-0.472,0-1.175-0.066-1.653-0.066h-1.206l-0.096-0.452L958.641,493.763z M960.151,493.726
			c0.15,0.108,0.734,0.211,1.2,0.037c0.554-0.304,0.87-0.979,0.87-1.949c0-0.801-0.288-1.425-0.586-1.665
			c-0.244-0.155-0.606-0.226-0.98-0.226c-0.214,0-0.433,0.012-0.594,0.039c-0.032,0.199-0.065,0.695-0.065,1.253v1.289
			c0,0.4,0.019,1.046,0.11,1.17C960.119,493.685,960.131,493.704,960.151,493.726"/>
		<path fill="#FFFFFF" d="M965.132,493.763c0.032-0.192,0.063-0.697,0.063-1.259v-1.288c0-0.403-0.019-1.048-0.108-1.17
			c-0.098-0.122-0.375-0.247-0.602-0.315l0.1-0.452h2.063c0.937,0,1.686-0.027,2.299-0.065c0.078,0.102,0.181,0.257,0.231,0.354
			c-0.058,0.363-0.2,1.014-0.258,1.273c-0.166,0.012-0.587-0.007-0.774-0.04l-0.193-0.858c-0.214-0.037-0.511-0.064-0.779-0.064
			c-0.233,0-0.441,0.009-0.634,0.014c-0.021,0.233-0.052,0.748-0.052,1.325v0.378l1.561-0.092l0.148,0.196
			c-0.031,0.192-0.069,0.419-0.109,0.613l-1.6-0.059v0.251c0,0.4,0.018,1.045,0.109,1.169c0.013,0.02,0.033,0.031,0.051,0.053
			c0.137,0.089,0.42,0.115,0.685,0.115c0.252,0,0.529-0.026,0.716-0.065l0.259-0.896c0.206-0.012,0.66,0.006,0.839,0.038
			c0.019,0.492,0.019,1.007,0,1.524h-4.562l-0.1-0.451L965.132,493.763z"/>
		<path fill="#FFFFFF" d="M973.144,493.763c0.034-0.192,0.066-0.697,0.066-1.259v-1.288c0-0.403-0.02-1.048-0.11-1.17
			c-0.07-0.111-0.375-0.247-0.601-0.315l0.095-0.452h2.52l0.097,0.452l-0.646,0.225c-0.032,0.193-0.063,0.696-0.063,1.261v1.288
			c0,0.4,0.019,1.045,0.107,1.169c0.014,0.02,0.032,0.039,0.053,0.06c0.136,0.076,0.406,0.089,0.658,0.089
			c0.24,0,0.496-0.02,0.671-0.046l0.258-0.961c0.207-0.014,0.658,0.006,0.84,0.04c0.02,0.509,0.02,1.051,0,1.587h-4.494
			l-0.095-0.451L973.144,493.763z"/>
		<path fill="#FFFFFF" d="M980.248,494.441h-2.324l-0.097-0.451l0.613-0.292c0.439-0.896,0.995-2.291,1.519-3.639l0.244-0.717
			c0.193-0.053,0.962-0.149,1.368-0.13c0.059,0.232,0.142,0.542,0.265,0.847c0.542,1.366,1.147,2.987,1.459,3.673l0.683,0.258
			l-0.096,0.451h-2.543l-0.097-0.451l0.646-0.228c-0.09-0.259-0.193-0.567-0.311-0.902l-1.83,0.044
			c-0.085,0.28-0.169,0.548-0.24,0.794l0.838,0.292L980.248,494.441z M981.351,492.214c-0.211-0.605-0.449-1.271-0.702-1.904
			c-0.227,0.574-0.459,1.234-0.67,1.872L981.351,492.214z"/>
		<path fill="#FFFFFF" d="M987.272,490.769c0-0.961,1.021-1.62,2.189-1.62c0.632,0,1.213,0.166,1.645,0.418l0.131,0.227
			c-0.059,0.331-0.202,0.93-0.26,1.112c-0.174,0.006-0.618-0.016-0.808-0.04c-0.05-0.4-0.114-0.657-0.185-0.858
			c-0.176-0.13-0.382-0.193-0.679-0.193c-0.232,0-0.461,0.057-0.557,0.11c-0.076,0.114-0.128,0.297-0.128,0.502
			c0,1.244,2.679,0.839,2.679,2.66c0,0.884-0.858,1.483-2.084,1.483c-0.872,0-1.53-0.182-1.95-0.45
			c-0.006-0.407,0-0.809,0.032-1.203c0.2-0.037,0.664-0.056,0.858-0.037c0.083,0.389,0.169,0.657,0.246,0.854
			c0.168,0.113,0.442,0.173,0.801,0.173c0.238,0,0.457-0.046,0.573-0.097c0.097-0.116,0.174-0.298,0.174-0.548
			C989.951,492.284,987.272,492.569,987.272,490.769"/>
		<path fill="#FFFFFF" d="M992.363,492.015c0-1.705,1.336-2.867,2.872-2.867c1.544,0,2.607,0.971,2.607,2.558
			c0,1.689-1.26,2.864-2.807,2.864C993.453,494.569,992.363,493.602,992.363,492.015 M996.107,493.504
			c0.159-0.29,0.314-0.832,0.314-1.502c0-1.286-0.387-2.062-1.359-2.062c-0.322,0-0.62,0.084-0.829,0.232
			c-0.269,0.388-0.451,0.983-0.451,1.687c0,1.194,0.53,1.937,1.421,1.937C995.591,493.796,995.915,493.686,996.107,493.504"/>
		<path fill="#FFFFFF" d="M999.423,493.763c0.031-0.192,0.063-0.697,0.063-1.259v-1.288c0-0.403-0.02-1.048-0.109-1.17
			c-0.071-0.111-0.375-0.247-0.601-0.315l0.098-0.452h1.188c0.264,0,1.076-0.047,1.443-0.047c1.286-0.007,2.061,0.446,2.061,1.324
			c0,0.567-0.387,0.947-0.865,1.187c0.612,0.155,1.116,0.542,1.116,1.245c0,1.014-0.967,1.52-2.052,1.52
			c-0.471,0-1.175-0.065-1.652-0.065h-1.239l-0.098-0.451L999.423,493.763z M1000.777,491.51l1.021,0.046
			c0.199-0.148,0.411-0.446,0.411-0.89c0-0.279-0.076-0.474-0.172-0.613c-0.137-0.111-0.388-0.177-0.639-0.177
			c-0.156,0-0.343,0.022-0.497,0.059l-0.059,0.021c-0.033,0.193-0.065,0.695-0.065,1.261V491.51z M1000.914,493.704
			c0.103,0.084,0.387,0.155,0.697,0.155c0.169,0,0.359-0.025,0.527-0.091c0.194-0.161,0.316-0.472,0.316-0.781
			c0-0.451-0.277-0.74-0.83-0.74h-0.848v0.257c0,0.4,0.019,1.045,0.109,1.169C1000.895,493.686,1000.901,493.691,1000.914,493.704"
			/>
		<path fill="#FFFFFF" d="M1005.591,493.763c0.031-0.192,0.063-0.697,0.063-1.259v-1.288c0-0.403-0.019-1.048-0.108-1.17
			c-0.097-0.122-0.376-0.247-0.603-0.315l0.097-0.452h2.067c0.936,0,1.685-0.027,2.296-0.065c0.079,0.102,0.183,0.257,0.233,0.354
			c-0.057,0.363-0.197,1.014-0.258,1.273c-0.168,0.012-0.587-0.007-0.773-0.04l-0.194-0.858c-0.213-0.037-0.51-0.064-0.781-0.064
			c-0.233,0-0.438,0.009-0.632,0.014c-0.021,0.233-0.053,0.748-0.053,1.325v0.378l1.562-0.092l0.149,0.196
			c-0.033,0.192-0.071,0.419-0.111,0.613l-1.6-0.059v0.251c0,0.4,0.021,1.045,0.108,1.169c0.014,0.02,0.034,0.031,0.054,0.053
			c0.137,0.089,0.419,0.115,0.685,0.115c0.251,0,0.527-0.026,0.715-0.065l0.258-0.896c0.207-0.012,0.659,0.006,0.84,0.038
			c0.019,0.492,0.019,1.007,0,1.524h-4.564l-0.097-0.451L1005.591,493.763z"/>
		<path fill="#FFFFFF" d="M1011.345,493.763c0.033-0.192,0.063-0.697,0.063-1.259v-1.289c0-0.402-0.018-1.048-0.107-1.169
			c-0.071-0.111-0.375-0.247-0.602-0.315l0.097-0.452h1.252c0.266,0,1.086-0.047,1.465-0.047c1.284,0,2.073,0.44,2.073,1.357
			c0,0.688-0.521,1.122-1.007,1.373c0.366,0.703,0.775,1.408,1.033,1.771l0.49,0.258l-0.098,0.45c-0.496,0-0.936,0.007-1.522,0.031
			c-0.247-0.585-0.588-1.301-0.994-2.097h-0.787v0.129c0,0.4,0.02,1.045,0.109,1.169c0.069,0.108,0.375,0.245,0.6,0.317l-0.097,0.45
			h-2.518l-0.097-0.45L1011.345,493.763z M1012.701,491.64l1.11,0.046c0.219-0.176,0.419-0.498,0.419-0.95
			c0-0.295-0.072-0.521-0.176-0.67c-0.141-0.124-0.404-0.188-0.696-0.188c-0.201,0-0.419,0.027-0.594,0.077
			c-0.031,0.201-0.063,0.697-0.063,1.261V491.64z"/>
		<path fill="#FFFFFF" d="M1019.165,494.441h-2.323l-0.098-0.451l0.613-0.292c0.439-0.896,0.995-2.291,1.518-3.639l0.246-0.717
			c0.191-0.053,0.961-0.149,1.366-0.13c0.06,0.232,0.144,0.542,0.266,0.847c0.543,1.366,1.148,2.987,1.457,3.673l0.686,0.258
			l-0.096,0.451h-2.544l-0.096-0.451l0.644-0.228c-0.089-0.259-0.191-0.567-0.309-0.902l-1.834,0.044
			c-0.082,0.28-0.166,0.548-0.237,0.794l0.837,0.292L1019.165,494.441z M1020.27,492.214c-0.213-0.605-0.451-1.271-0.706-1.904
			c-0.225,0.574-0.456,1.234-0.669,1.872L1020.27,492.214z"/>
		<path fill="#FFFFFF" d="M1024.269,490.046c-0.129-0.111-0.375-0.232-0.602-0.315l0.097-0.451c0.536,0,1.188-0.014,1.68-0.034
			c0.419,0.78,1.612,2.233,2.471,3.266c-0.013-1.401-0.077-2.303-0.161-2.465c-0.07-0.105-0.477-0.226-0.76-0.315l0.096-0.451h2.278
			l0.097,0.451l-0.646,0.231c-0.083,0.413-0.131,2.097-0.131,4.414l-0.999,0.096l-0.664-0.966c-0.529-0.723-1.221-1.581-1.807-2.278
			c0.025,1.366,0.076,2.297,0.142,2.446c0.097,0.114,0.509,0.219,0.858,0.314l-0.099,0.452h-2.355l-0.097-0.452l0.646-0.226
			c0.034-0.192,0.065-0.853,0.065-1.944C1024.378,490.812,1024.359,490.168,1024.269,490.046"/>
		<path fill="#FFFFFF" d="M1030.881,493.763c0.032-0.192,0.064-0.697,0.064-1.259v-1.288c0-0.403-0.019-1.048-0.108-1.17
			c-0.07-0.111-0.376-0.247-0.602-0.315l0.098-0.452h2.518l0.098,0.452l-0.646,0.225c-0.034,0.193-0.064,0.696-0.064,1.261v1.288
			c0,0.4,0.019,1.045,0.109,1.169c0.07,0.108,0.373,0.245,0.601,0.317l-0.098,0.451h-2.518l-0.098-0.451L1030.881,493.763z"/>
		<path fill="#FFFFFF" d="M1036.269,494.441h-2.324l-0.097-0.451l0.614-0.292c0.438-0.896,0.994-2.291,1.515-3.639l0.247-0.717
			c0.193-0.053,0.962-0.149,1.368-0.13c0.059,0.232,0.142,0.542,0.265,0.847c0.543,1.366,1.149,2.987,1.458,3.673l0.686,0.258
			l-0.096,0.451h-2.546l-0.096-0.451l0.644-0.228c-0.088-0.259-0.19-0.567-0.308-0.902l-1.832,0.044
			c-0.085,0.28-0.168,0.548-0.239,0.794l0.84,0.292L1036.269,494.441z M1037.372,492.214c-0.213-0.605-0.45-1.271-0.704-1.904
			c-0.224,0.574-0.456,1.234-0.67,1.872L1037.372,492.214z"/>
	</g>
	<path fill="#FFFFFF" d="M1034.81,474.972h0.836c0.401,0,0.674-0.063,0.823-0.182c0.145-0.117,0.219-0.276,0.219-0.476
		c0-0.124-0.038-0.239-0.109-0.339c-0.068-0.1-0.166-0.174-0.29-0.224c-0.125-0.052-0.356-0.074-0.695-0.074h-0.783V474.972
		 M1034.115,477.379V473.1h1.472c0.505,0,0.869,0.036,1.096,0.115c0.223,0.079,0.402,0.219,0.537,0.413
		c0.134,0.199,0.199,0.408,0.199,0.629c0,0.315-0.111,0.586-0.334,0.819c-0.224,0.231-0.521,0.362-0.892,0.391
		c0.151,0.063,0.277,0.14,0.364,0.226c0.173,0.169,0.385,0.453,0.635,0.851l0.523,0.836h-0.846l-0.379-0.675
		c-0.302-0.529-0.54-0.86-0.723-0.995c-0.127-0.098-0.313-0.147-0.554-0.147h-0.405v1.817H1034.115z M1035.864,471.859
		c-0.562,0-1.106,0.143-1.633,0.427c-0.531,0.287-0.945,0.697-1.244,1.229c-0.299,0.533-0.448,1.089-0.448,1.664
		s0.147,1.125,0.441,1.647c0.294,0.526,0.702,0.938,1.231,1.231c0.528,0.294,1.077,0.443,1.652,0.443
		c0.571,0,1.124-0.149,1.649-0.443c0.529-0.293,0.938-0.705,1.229-1.231c0.292-0.522,0.438-1.072,0.438-1.647
		s-0.147-1.131-0.444-1.664c-0.296-0.532-0.712-0.942-1.242-1.229C1036.962,472.002,1036.418,471.859,1035.864,471.859z
		 M1035.864,471.197c0.668,0,1.32,0.173,1.957,0.515c0.633,0.342,1.132,0.834,1.486,1.474c0.357,0.637,0.533,1.302,0.533,1.994
		c0,0.688-0.172,1.347-0.527,1.979c-0.347,0.634-0.84,1.124-1.469,1.476c-0.633,0.35-1.293,0.523-1.98,0.523
		c-0.69,0-1.35-0.174-1.98-0.523c-0.635-0.352-1.124-0.842-1.475-1.476c-0.355-0.633-0.53-1.292-0.53-1.979
		c0-0.692,0.179-1.357,0.537-1.994c0.357-0.64,0.853-1.132,1.491-1.474C1034.542,471.37,1035.194,471.197,1035.864,471.197z"/>
</g>
</svg>
